<svg version="1.1" xmlns="http://www.w3.org/2000/svg" viewBox="0 0 7316.171875 5118.75" width="14632.34375" height="10237.5">
  <!-- svg-source:excalidraw -->
  
  <defs>
    <style class="style-fonts">
      
    </style>
    
  </defs>
  <rect x="0" y="0" width="7316.171875" height="5118.75" fill="#ffffff"></rect><g stroke-linecap="round" transform="translate(10 10) rotate(0 3648.0859375 2549.375)"><path d="M32 0 C2284.18 21.52, 4535.26 21.1, 7264.17 0 M32 0 C1754.51 -28, 3477.3 -28.04, 7264.17 0 M7264.17 0 C7284.27 0.12, 7296.78 9.85, 7296.17 32 M7264.17 0 C7286.39 2.11, 7294.94 9.13, 7296.17 32 M7296.17 32 C7301.6 1765.33, 7302.55 3497.24, 7296.17 5066.75 M7296.17 32 C7281.01 1854.16, 7281.01 3676.89, 7296.17 5066.75 M7296.17 5066.75 C7295.72 5088.79, 7286.23 5098.79, 7264.17 5098.75 M7296.17 5066.75 C7298.05 5088.49, 7286.18 5096.93, 7264.17 5098.75 M7264.17 5098.75 C4435.63 5113.52, 1607.57 5113.03, 32 5098.75 M7264.17 5098.75 C4503.89 5097.23, 1743.14 5097.48, 32 5098.75 M32 5098.75 C9.66 5099.62, 0.82 5089.32, 0 5066.75 M32 5098.75 C11.14 5098.3, -1.54 5085.81, 0 5066.75 M0 5066.75 C6.47 3510.02, 7.4 1953.03, 0 32 M0 5066.75 C-2.43 3371.36, -2.68 1675.11, 0 32 M0 32 C-0.3 9.76, 11.61 -0.14, 32 0 M0 32 C-0.06 9.51, 8.45 1.01, 32 0" stroke="#1e1e1e" stroke-width="4" fill="none"></path></g><g stroke-linecap="round"><g transform="translate(650.8551915973221 330.5585139718087) rotate(0 -8.37681454866106 2152.7871492640957)"><path d="M-0.39 -0.08 C-2.98 717.75, -13.07 3589.15, -15.95 4306.57 M1.6 -1.17 C-1.03 716.39, -13.66 3587.24, -16.48 4304.97" stroke="#1e1e1e" stroke-width="4" fill="none"></path></g></g><mask></mask><g stroke-linecap="round"><g transform="translate(639.1796875 4626.2109375) rotate(0 3069.921875 -14.70703125)"><path d="M1.03 -1.12 C1024.27 -5.88, 5116.77 -23.63, 6139.78 -28.33 M0.11 0.91 C1023.16 -4.19, 5115.21 -25.07, 6138.8 -29.88" stroke="#1e1e1e" stroke-width="4" fill="none"></path></g></g><mask></mask><g stroke-linecap="round"><g transform="translate(663.3203125 2449.0234375) rotate(0 1169.2578125 1093.671875)"><path d="M0.32 0.28 C183.32 185.05, 708.48 744.09, 1098 1108.47 C1487.51 1472.84, 2130.69 2006.8, 2337.41 2186.54 M-0.97 -0.62 C182.38 184.39, 709.97 745.4, 1100.09 1110.08 C1490.21 1474.75, 2133.33 2007.82, 2339.73 2187.43" stroke="#1e1e1e" stroke-width="4" fill="none"></path></g></g><mask></mask><g stroke-linecap="round"><g transform="translate(651.8406123705572 1732.7734375) rotate(0 1644.081424443204 1447.421875)"><path d="M2.06 1.59 C36.12 142.94, -138.05 411.06, 205.6 846 C549.24 1280.95, 1549.76 2270.01, 2063.93 2611.25 C2578.1 2952.48, 3087.06 2846.55, 3290.64 2893.41 M-0.27 -0.01 C33.54 141.83, -139.07 413.03, 204.73 848.54 C548.54 1284.05, 1549.36 2271.93, 2062.56 2613.04 C2575.76 2954.16, 3079.51 2848.75, 3283.93 2895.24" stroke="#e03131" stroke-width="4" fill="none"></path></g></g><mask></mask><g stroke-linecap="round"><g transform="translate(939.2578125 344.453125) rotate(0 2851.15234375 1971.93359375)"><path d="M0.88 0.99 C24.32 304.52, -5.2 1280.92, 141.16 1820.59 C287.53 2360.27, 457.24 2901.61, 879.09 3239.04 C1300.93 3576.48, 2095.74 3727.68, 2672.23 3845.21 C3248.71 3962.73, 3833.13 3935.53, 4337.99 3944.2 C4842.85 3952.86, 5474.02 3905.03, 5701.4 3897.19 M-0.12 0.47 C23.13 304.18, -6.09 1281.79, 140.27 1821.72 C286.64 2361.66, 456.07 2902.73, 878.09 3240.08 C1300.11 3577.43, 2095.44 3728.38, 2672.41 3845.82 C3249.39 3963.27, 3834.94 3936.32, 4339.92 3944.76 C4844.91 3953.2, 5475.17 3904.59, 5702.33 3896.48" stroke="#1e1e1e" stroke-width="4" fill="none"></path></g></g><mask></mask></svg>