<svg version="1.1" xmlns="http://www.w3.org/2000/svg" viewBox="0 0 7316.171875 5118.75" width="14632.34375" height="10237.5">
  <!-- svg-source:excalidraw -->
  
  <defs>
    <style class="style-fonts">
      
    </style>
    
  </defs>
  <rect x="0" y="0" width="7316.171875" height="5118.75" fill="#ffffff"></rect><g stroke-linecap="round" transform="translate(10 10) rotate(0 3648.0859375 2549.375)"><path d="M32 0 C2284.18 21.52, 4535.26 21.1, 7264.17 0 M32 0 C1754.51 -28, 3477.3 -28.04, 7264.17 0 M7264.17 0 C7284.27 0.12, 7296.78 9.85, 7296.17 32 M7264.17 0 C7286.39 2.11, 7294.94 9.13, 7296.17 32 M7296.17 32 C7301.6 1765.33, 7302.55 3497.24, 7296.17 5066.75 M7296.17 32 C7281.01 1854.16, 7281.01 3676.89, 7296.17 5066.75 M7296.17 5066.75 C7295.72 5088.79, 7286.23 5098.79, 7264.17 5098.75 M7296.17 5066.75 C7298.05 5088.49, 7286.18 5096.93, 7264.17 5098.75 M7264.17 5098.75 C4435.63 5113.52, 1607.57 5113.03, 32 5098.75 M7264.17 5098.75 C4503.89 5097.23, 1743.14 5097.48, 32 5098.75 M32 5098.75 C9.66 5099.62, 0.82 5089.32, 0 5066.75 M32 5098.75 C11.14 5098.3, -1.54 5085.81, 0 5066.75 M0 5066.75 C6.47 3510.02, 7.4 1953.03, 0 32 M0 5066.75 C-2.43 3371.36, -2.68 1675.11, 0 32 M0 32 C-0.3 9.76, 11.61 -0.14, 32 0 M0 32 C-0.06 9.51, 8.45 1.01, 32 0" stroke="#1e1e1e" stroke-width="4" fill="none"></path></g><g stroke-linecap="round"><g transform="translate(650.8551915973221 330.5585139718087) rotate(0 -8.37681454866106 2152.7871492640957)"><path d="M-0.39 -0.08 C-2.98 717.75, -13.07 3589.15, -15.95 4306.57 M1.6 -1.17 C-1.03 716.39, -13.66 3587.24, -16.48 4304.97" stroke="#1e1e1e" stroke-width="4" fill="none"></path></g></g><mask></mask><g stroke-linecap="round"><g transform="translate(639.1796875 4626.2109375) rotate(0 3069.921875 -14.70703125)"><path d="M1.03 -1.12 C1024.27 -5.88, 5116.77 -23.63, 6139.78 -28.33 M0.11 0.91 C1023.16 -4.19, 5115.21 -25.07, 6138.8 -29.88" stroke="#1e1e1e" stroke-width="4" fill="none"></path></g></g><mask></mask><g stroke-linecap="round"><g transform="translate(663.3203125 2449.0234375) rotate(0 1169.2578125 1093.671875)"><path d="M0.32 0.28 C183.32 185.05, 708.48 744.09, 1098 1108.47 C1487.51 1472.84, 2130.69 2006.8, 2337.41 2186.54 M-0.97 -0.62 C182.38 184.39, 709.97 745.4, 1100.09 1110.08 C1490.21 1474.75, 2133.33 2007.82, 2339.73 2187.43" stroke="#1e1e1e" stroke-width="4" fill="none"></path></g></g><mask></mask><g stroke-linecap="round"><g transform="translate(939.2578125 342.14802150085234) rotate(0 2851.15234375 1937.165316117821)"><path d="M0.88 0.99 C9.57 336.67, -35.07 1524.54, 52.63 2013.5 C140.34 2502.47, 259.34 2649.7, 527.13 2934.77 C794.91 3219.84, 1205.73 3568.66, 1659.35 3723.9 C2112.97 3879.14, 2575.15 3841.05, 3248.83 3866.23 C3922.5 3891.4, 5292.49 3873.51, 5701.4 3874.96 M-0.12 0.47 C8.38 336.33, -35.96 1525.41, 51.74 2014.63 C139.45 2503.86, 258.16 2650.83, 526.13 2935.81 C794.1 3220.79, 1205.43 3569.36, 1659.54 3724.52 C2113.64 3879.68, 2576.96 3841.83, 3250.76 3866.79 C3924.56 3891.75, 5293.65 3873.06, 5702.33 3874.25" stroke="#1e1e1e" stroke-width="4" fill="none"></path></g></g><mask></mask></svg>